<!-- <svg width="28" height="24" viewBox="0 0 28 24" fill="none" xmlns="http://www.w3.org/2000/svg">

<path d="M3.18595 9.23478C1.8487 6.89136 2.58741 3.92689 4.83591 2.61345C7.0844 1.30002 9.99122 2.13499 11.3285 4.47841L17.1985 14.7652C18.5358 17.1086 17.797 20.0731 15.5485 21.3865C13.3001 22.6999 10.3932 21.865 9.05598 19.5215L3.18595 9.23478Z" fill="url(#paint0_linear_2290_2172)"/>
<path d="M27.2349 6.6917C27.2349 9.32347 25.1345 11.4569 22.5435 11.4569C19.9525 11.4569 17.8521 9.32347 17.8521 6.6917C17.8521 4.05992 19.9525 1.92645 22.5435 1.92645C25.1345 1.92645 27.2349 4.05992 27.2349 6.6917Z" fill="url(#paint1_linear_2290_2172)"/>
<defs>
<linearGradient id="paint0_linear_2290_2172" x1="4.83591" y1="2.61345" x2="15.441" y2="21.0019" gradientUnits="userSpaceOnUse">
<stop stop-color="#1DC071"/>
<stop offset="1" stop-color="#77D9AA"/>
</linearGradient>
<linearGradient id="paint1_linear_2290_2172" x1="22.5435" y1="1.92645" x2="22.5205" y2="11.2863" gradientUnits="userSpaceOnUse">
<stop stop-color="#1DC071"/>
<stop offset="1" stop-color="#77D9AA"/>
</linearGradient>
</defs>
</svg> -->
<svg xmlns="http://www.w3.org/2000/svg" viewBox="0 0 25 25"><path fill="#7992a5" d="M17.5,18a.5.5,0,0,1-.5-.5v-3a.5.5,0,0,1,1,0v3A.5.5,0,0,1,17.5,18Z"/><path fill="#ccd8e5" d="M15.86,5.7A3.33,3.33,0,0,1,17,5.5a3.5,3.5,0,0,1,0,7H14.5a2,2,0,0,0-4,0H7a2.5,2.5,0,0,1,0-5,2.87,2.87,0,0,1,.52,0A4.5,4.5,0,0,1,15.86,5.7Z"/><path fill="#7992a5" d="M11.5,12a.5.5,0,0,1-.5-.5v-2a.5.5,0,0,1,1,0v2A.5.5,0,0,1,11.5,12Z"/><circle cx="16.5" cy="18.5" r="2" fill="#16afd3"/><circle cx="12.5" cy="12.5" r="2" fill="#16afd3"/><circle cx="8.5" cy="19.5" r="2" fill="#16afd3"/><path fill="#7992a5" d="M8.5 16a.5.5 0 0 1-.5-.5v-1a.5.5 0 0 1 1 0v1A.5.5 0 0 1 8.5 16zM12.5 19a.5.5 0 0 1-.5-.5v-2a.5.5 0 0 1 1 0v2A.5.5 0 0 1 12.5 19zM13.5 9a.5.5 0 0 1-.5-.5v-1a.5.5 0 0 1 1 0v1A.5.5 0 0 1 13.5 9z"/></svg>